<?xml version="1.0" encoding="utf-8"?>
<!-- Generator: Adobe Illustrator 22.0.1, SVG Export Plug-In . SVG Version: 6.00 Build 0)  -->
<svg version="1.1" id="Layer_1" xmlns="http://www.w3.org/2000/svg" xmlns:xlink="http://www.w3.org/1999/xlink" x="0px" y="0px"
	 viewBox="0 0 95.3 95.7" style="enable-background:new 0 0 95.3 95.7;" xml:space="preserve">
<style type="text/css">
	.st0{fill:#E8491D;stroke:#000000;stroke-width:2;stroke-miterlimit:10;}
</style>
<g>
	<path class="st0" d="M91.8,70.1l-19.4-10c-2.7-1.4-6.1-0.7-8,1.7l-7.1,9.1c-6.9-3.7-12.2-7.3-18.3-13.4C32.5,51,29,45.6,25.4,38.9
		l9-7c2.4-1.9,3.2-5.3,1.7-8l-10-19.3c-1.8-3.4-6.1-4.5-9.2-2.4L4.6,10.4c-2.9,1.9-4.5,5.2-4.3,8.6c0.2,3.5,0.7,7.9,1.5,11
		C5.4,43.8,14,58.1,26.1,70.2s26.4,20.7,40.2,24.3c3.1,0.8,7.5,1.2,11.1,1.5c3.5,0.2,6.8-1.5,8.7-4.4l8-12.5
		C96.3,76,95.1,71.8,91.8,70.1z"/>
	<path class="st0" d="M48.5,12.9c8.4,2.3,16,6.7,22.2,12.9S81.3,39.6,83.6,48c0.4,1.5,1.8,2.5,3.3,2.5c0.3,0,0.6,0,0.9-0.1
		c1.8-0.5,2.9-2.4,2.4-4.2C87.6,36.7,82.6,28,75.6,21S59.9,8.9,50.4,6.4c-1.8-0.5-3.7,0.6-4.2,2.4C45.6,10.6,46.7,12.4,48.5,12.9z"
		/>
	<path class="st0" d="M54,22.6c-1.7-0.8-3.7-0.1-4.5,1.6s-0.1,3.7,1.6,4.5c3.6,1.7,6.9,4.1,9.7,6.9c2.9,2.9,5.2,6.1,6.9,9.7
		c0.6,1.2,1.8,1.9,3.1,1.9c0.5,0,1-0.1,1.5-0.3c1.7-0.8,2.4-2.8,1.6-4.5c-2.1-4.3-4.9-8.2-8.3-11.6C62.2,27.5,58.3,24.7,54,22.6z"/>
</g>
</svg>
