<?xml version="1.0" encoding="utf-8"?>
<!-- Generator: Adobe Illustrator 22.0.1, SVG Export Plug-In . SVG Version: 6.00 Build 0)  -->
<svg version="1.1" id="Layer_1" xmlns="http://www.w3.org/2000/svg" xmlns:xlink="http://www.w3.org/1999/xlink" x="0px" y="0px"
	 viewBox="0 0 24 24" style="enable-background:new 0 0 24 24;" xml:space="preserve">
<style type="text/css">
	.st0{fill:none;}
	.st1{fill:#25D366;}
	.st2{fill:#FFFFFF;}
</style>
<g id="Layer_2">
	<line class="st0" x1="3.9" y1="17.4" x2="3.9" y2="17.4"/>
	<line class="st0" x1="6.7" y1="20.1" x2="6.7" y2="20.1"/>
	<path class="st0" d="M3.9,17.4c0,0,1.7,2.1,2.8,2.7"/>
	<path class="st1" d="M6.8,20.2l-3.9,1l1-3.7C3.9,17.4,5.9,19.8,6.8,20.2"/>
</g>
<ellipse class="st1" cx="12.1" cy="11.9" rx="9.9" ry="9.9"/>
<g>
	<path class="st2" d="M20.5,3.5C18.2,1.2,15.2,0,12,0C5.5,0,0.2,5.3,0.2,11.9c0,2.1,0.5,4.1,1.6,5.9L0.1,24l6.3-1.7
		c1.7,0.9,3.7,1.4,5.7,1.4c6.6,0,11.9-5.3,11.9-11.9C23.9,8.7,22.7,5.7,20.5,3.5z M12,21.8c-2.1,0-3.7-0.6-5.4-1.6l-3.7,1l1-3.6
		c-1.1-1.7-1.7-3.4-1.7-5.6C2.2,6.4,6.6,2,12.1,2c5.5,0,9.9,4.4,9.9,9.9C21.9,17.4,17.5,21.8,12,21.8z"/>
	<path class="st2" d="M17.5,14.4c-0.3-0.1-1.8-0.9-2-1c-0.3-0.1-0.5-0.1-0.7,0.1c-0.2,0.3-0.8,1-0.9,1.2c-0.2,0.2-0.3,0.2-0.6,0.1
		s-1.3-0.5-2.4-1.5c-0.9-0.8-1.5-1.8-1.7-2.1c-0.2-0.3,0-0.5,0.1-0.6c0.1-0.1,0.3-0.3,0.4-0.5C9.9,10,9.9,9.8,10,9.6
		c0.1-0.2,0.1-0.4,0-0.5C9.9,9,9.3,7.5,9.1,6.9C8.8,6.3,8.6,6.4,8.4,6.4l-0.6,0C7.6,6.4,7.3,6.5,7,6.8c-0.3,0.3-1,1-1,2.5
		s1.1,2.9,1.2,3.1c0.1,0.2,2.1,3.2,5.1,4.5c0.7,0.3,1.3,0.5,1.7,0.6c0.7,0.2,1.4,0.2,1.9,0.1c0.6-0.1,1.8-0.7,2-1.4
		c0.2-0.7,0.2-1.3,0.2-1.4C18,14.6,17.8,14.5,17.5,14.4z"/>
</g>
</svg>
